<svg width="32" height="32" viewBox="0 0 32 32" fill="none" xmlns="http://www.w3.org/2000/svg">
<path d="M19.8092 22.776C22.2935 22.4819 24.7344 21.8956 27.0812 21.0293C25.0937 18.8277 23.9955 15.966 23.9999 13V12C23.9999 9.87827 23.1571 7.84344 21.6568 6.34315C20.1565 4.84286 18.1216 4 15.9999 4C13.8782 4 11.8433 4.84286 10.343 6.34315C8.84276 7.84344 7.9999 9.87827 7.9999 12V13C8.00393 15.9662 6.90522 18.8279 4.91724 21.0293C7.2279 21.8827 9.6639 22.476 12.1906 22.776M19.8092 22.776C17.2786 23.0762 14.7213 23.0762 12.1906 22.776M19.8092 22.776C20.0014 23.3758 20.0492 24.0125 19.9487 24.6343C19.8482 25.2561 19.6023 25.8453 19.2311 26.3541C18.8598 26.8629 18.3736 27.2768 17.8122 27.5621C17.2507 27.8475 16.6297 27.9962 15.9999 27.9962C15.3701 27.9962 14.7491 27.8475 14.1876 27.5621C13.6262 27.2768 13.14 26.8629 12.7687 26.3541C12.3975 25.8453 12.1516 25.2561 12.0511 24.6343C11.9507 24.0125 11.9984 23.3758 12.1906 22.776" stroke="#C9CACC" stroke-width="2" stroke-linecap="round" stroke-linejoin="round"/>
</svg>
