<svg width="26" height="24" viewBox="0 0 26 24" fill="none" xmlns="http://www.w3.org/2000/svg">
<g clip-path="url(#clip0_21_133)">
<path d="M21.5483 4.21902C19.8981 3.52944 18.1564 3.03769 16.3672 2.75609C16.3509 2.75334 16.3341 2.75532 16.3191 2.76175C16.3042 2.76819 16.2919 2.77875 16.2839 2.79193C16.0601 3.15423 15.8123 3.62681 15.6387 3.99829C13.6822 3.73163 11.7358 3.73163 9.81942 3.99829C9.64581 3.61858 9.38898 3.15423 9.16421 2.79193C9.1559 2.77903 9.14351 2.7687 9.12865 2.76231C9.1138 2.75591 9.09717 2.75375 9.08094 2.75609C7.26292 3.04113 5.52317 3.54042 3.89974 4.21902C3.88562 4.22447 3.8737 4.23379 3.86564 4.24567C0.565694 8.73371 -0.33834 13.1114 0.105126 17.4349C0.107114 17.456 0.120189 17.4762 0.138236 17.4891C2.31545 18.9446 4.42449 19.8283 6.49432 20.414C6.51041 20.4184 6.52759 20.4182 6.54355 20.4134C6.55951 20.4086 6.57349 20.3995 6.58361 20.3873C7.07321 19.7787 7.50966 19.1369 7.88388 18.4619C7.90595 18.4224 7.88487 18.3755 7.83973 18.3599C7.14743 18.1208 6.48825 17.8293 5.85412 17.4983C5.80396 17.4717 5.79993 17.4064 5.84612 17.3751C5.97993 17.2841 6.11141 17.1903 6.24047 17.0937C6.25179 17.0852 6.26548 17.0798 6.28002 17.078C6.29456 17.0762 6.30936 17.0781 6.32275 17.0836C10.4885 18.815 14.9985 18.815 19.1152 17.0836C19.1286 17.0778 19.1435 17.0756 19.1582 17.0772C19.173 17.0788 19.1869 17.0842 19.1984 17.0928C19.3276 17.1898 19.4594 17.2839 19.5938 17.375C19.6399 17.4063 19.6369 17.4716 19.5868 17.4983C18.9526 17.8357 18.2934 18.1208 17.6002 18.3589C17.5895 18.3626 17.5798 18.3684 17.5717 18.3757C17.5637 18.3831 17.5574 18.3919 17.5533 18.4016C17.5492 18.4113 17.5475 18.4217 17.5481 18.4321C17.5488 18.4425 17.5518 18.4526 17.5571 18.4619C17.9393 19.1359 18.3758 19.7777 18.8563 20.3864C18.8764 20.4121 18.9125 20.4232 18.9456 20.4139C21.0255 19.8283 23.1345 18.9446 25.3117 17.489C25.3211 17.4828 25.3289 17.4748 25.3346 17.4656C25.3403 17.4564 25.3438 17.4462 25.3449 17.4357C25.8756 12.4374 24.4559 8.09552 21.5814 4.24653C21.5743 4.23407 21.5626 4.22431 21.5483 4.21902ZM8.50607 14.8023C7.25189 14.8023 6.21844 13.7542 6.21844 12.4668C6.21844 11.1795 7.2318 10.1313 8.50607 10.1313C9.79028 10.1313 10.8137 11.1887 10.7936 12.4668C10.7936 13.7542 9.78024 14.8023 8.50607 14.8023ZM16.9641 14.8023C15.71 14.8023 14.6765 13.7542 14.6765 12.4668C14.6765 11.1795 15.6899 10.1313 16.9641 10.1313C18.2484 10.1313 19.2718 11.1887 19.2517 12.4668C19.2517 13.7542 18.2484 14.8023 16.9641 14.8023Z" fill="white" fill-opacity="0.7"/>
</g>
<rect x="0.5" y="0.5" width="24.4545" height="22.1722" rx="4.5" stroke="black"/>
<defs>
<clipPath id="clip0_21_133">
<rect width="25.4545" height="23.1722" rx="5" fill="white"/>
</clipPath>
</defs>
</svg>
