<svg width="26" height="25" viewBox="0 0 26 25" fill="none" xmlns="http://www.w3.org/2000/svg">
<path d="M23.743 6.33763C22.6051 4.38797 21.0616 2.84441 19.1121 1.70662C17.1624 0.568778 15.0338 0 12.7249 0C10.4163 0 8.28701 0.568952 6.33763 1.70662C4.38797 2.84436 2.84453 4.38797 1.70663 6.33763C0.568895 8.28724 0 10.4162 0 12.7245C0 15.4973 0.808976 17.9907 2.42733 20.2053C4.04552 22.4201 6.13597 23.9526 8.69852 24.8031C8.99681 24.8584 9.21762 24.8195 9.36119 24.6872C9.50483 24.5548 9.57655 24.3889 9.57655 24.1903C9.57655 24.1572 9.57371 23.8591 9.5682 23.2957C9.56251 22.7322 9.55984 22.2407 9.55984 21.8213L9.17874 21.8872C8.93576 21.9317 8.62923 21.9506 8.25915 21.9452C7.88925 21.9401 7.50525 21.9013 7.10767 21.8292C6.70991 21.7578 6.33995 21.5921 5.9975 21.3325C5.65523 21.0729 5.41224 20.7332 5.26861 20.3137L5.10293 19.9324C4.99249 19.6786 4.81863 19.3966 4.5811 19.0875C4.34357 18.7782 4.10338 18.5684 3.86039 18.458L3.74439 18.3749C3.66709 18.3198 3.59536 18.2532 3.52903 18.176C3.46275 18.0987 3.41313 18.0214 3.38 17.944C3.3468 17.8665 3.37431 17.803 3.46281 17.7531C3.55131 17.7033 3.71125 17.6791 3.94332 17.6791L4.27457 17.7286C4.4955 17.7729 4.76878 17.9051 5.09475 18.1262C5.42054 18.347 5.68836 18.6342 5.89827 18.9875C6.15245 19.4405 6.45869 19.7857 6.81785 20.0232C7.17673 20.2607 7.53856 20.3793 7.90301 20.3793C8.26745 20.3793 8.58222 20.3517 8.84743 20.2967C9.11235 20.2415 9.3609 20.1584 9.59298 20.048C9.69239 19.3076 9.96305 18.7389 10.4047 18.3413C9.7752 18.2751 9.20921 18.1755 8.70647 18.043C8.20402 17.9103 7.6848 17.695 7.14916 17.3965C6.61323 17.0984 6.16864 16.7282 5.81528 16.2866C5.46186 15.8447 5.17181 15.2646 4.94555 14.5468C4.71916 13.8287 4.60594 13.0004 4.60594 12.0615C4.60594 10.7247 5.04234 9.58717 5.91498 8.6482C5.5062 7.64319 5.54479 6.51655 6.03087 5.26838C6.35121 5.16886 6.82627 5.24354 7.45581 5.49198C8.08546 5.74053 8.54647 5.95346 8.83931 6.12999C9.13214 6.30647 9.36677 6.45602 9.54353 6.57731C10.571 6.29022 11.6313 6.14665 12.7248 6.14665C13.8182 6.14665 14.8788 6.29022 15.9063 6.57731L16.5359 6.17984C16.9664 5.91463 17.4749 5.67159 18.0599 5.45066C18.6454 5.22985 19.093 5.16903 19.4025 5.26856C19.8993 6.51678 19.9436 7.64337 19.5347 8.64838C20.4073 9.58735 20.8439 10.7252 20.8439 12.0617C20.8439 13.0005 20.7303 13.8315 20.5042 14.5551C20.2779 15.2788 19.9854 15.8584 19.6265 16.2949C19.2672 16.7313 18.8198 17.0986 18.2841 17.3967C17.7484 17.695 17.229 17.9103 16.7265 18.0429C16.2239 18.1756 15.6579 18.2753 15.0283 18.3416C15.6025 18.8385 15.8896 19.6228 15.8896 20.6942V24.1899C15.8896 24.3885 15.9587 24.5543 16.0969 24.6868C16.235 24.819 16.453 24.858 16.7513 24.8025C19.3142 23.9522 21.4047 22.4196 23.0228 20.2048C24.6407 17.9902 25.45 15.4969 25.45 12.7241C25.4494 10.4161 24.8802 8.28724 23.743 6.33763Z" fill="white" fill-opacity="0.7"/>
</svg>
