<svg width="52" height="52" viewBox="0 0 52 52" fill="none" xmlns="http://www.w3.org/2000/svg">
<rect x="2" y="2" width="48" height="48" rx="13" stroke="#787878" stroke-width="4"/>
<path d="M22.7919 15.2533C22.9119 14.5307 23.5386 14 24.2719 14H27.7293C28.4626 14 29.0893 14.5307 29.2093 15.2533L29.4933 16.9613C29.5773 17.46 29.9106 17.876 30.3533 18.1213C30.452 18.1747 30.5493 18.232 30.6466 18.2907C31.0799 18.552 31.6066 18.6333 32.0799 18.456L33.7026 17.848C34.0351 17.7229 34.4013 17.72 34.7358 17.8396C35.0703 17.9593 35.3515 18.1938 35.5293 18.5013L37.2573 21.4973C37.4347 21.8049 37.4972 22.1655 37.4337 22.5149C37.3703 22.8643 37.1849 23.1798 36.9106 23.4053L35.5733 24.508C35.1826 24.8293 34.9893 25.3253 34.9999 25.8307C35.0018 25.944 35.0018 26.0573 34.9999 26.1707C34.9893 26.6747 35.1826 27.1707 35.5733 27.492L36.9119 28.5947C37.4773 29.0613 37.624 29.868 37.2586 30.5013L35.5279 33.4973C35.3504 33.8048 35.0695 34.0394 34.7353 34.1593C34.4011 34.2792 34.0351 34.2766 33.7026 34.152L32.0799 33.544C31.6066 33.3667 31.0799 33.448 30.6453 33.7093C30.5486 33.7681 30.4508 33.825 30.3519 33.88C29.9106 34.124 29.5773 34.54 29.4933 35.0387L29.2093 36.7467C29.0893 37.4707 28.4626 38 27.7293 38H24.2706C23.5373 38 22.9119 37.4693 22.7906 36.7467L22.5066 35.0387C22.4239 34.54 22.0906 34.124 21.6479 33.8787C21.5491 33.8241 21.4513 33.7677 21.3546 33.7093C20.9213 33.448 20.3946 33.3667 19.9199 33.544L18.2973 34.152C17.9649 34.2767 17.5991 34.2795 17.2649 34.1599C16.9307 34.0402 16.6497 33.8059 16.4719 33.4987L14.7426 30.5027C14.5652 30.1951 14.5027 29.8345 14.5662 29.4851C14.6296 29.1357 14.815 28.8202 15.0893 28.5947L16.4279 27.492C16.8173 27.172 17.0106 26.6747 17.0013 26.1707C16.9992 26.0573 16.9992 25.944 17.0013 25.8307C17.0106 25.324 16.8173 24.8293 16.4279 24.508L15.0893 23.4053C14.8153 23.1799 14.6302 22.8646 14.5667 22.5155C14.5032 22.1664 14.5656 21.8061 14.7426 21.4987L16.4719 18.5027C16.6495 18.1948 16.9306 17.9601 17.2652 17.8402C17.5997 17.7203 17.9659 17.7231 18.2986 17.848L19.9199 18.456C20.3946 18.6333 20.9213 18.552 21.3546 18.2907C21.4506 18.232 21.5493 18.176 21.6479 18.12C22.0906 17.876 22.4239 17.46 22.5066 16.9613L22.7919 15.2533Z" stroke="#CBCBCB" stroke-width="2" stroke-linecap="round" stroke-linejoin="round"/>
<path d="M30 26C30 27.0609 29.5786 28.0783 28.8284 28.8284C28.0783 29.5786 27.0609 30 26 30C24.9391 30 23.9217 29.5786 23.1716 28.8284C22.4214 28.0783 22 27.0609 22 26C22 24.9391 22.4214 23.9217 23.1716 23.1716C23.9217 22.4214 24.9391 22 26 22C27.0609 22 28.0783 22.4214 28.8284 23.1716C29.5786 23.9217 30 24.9391 30 26Z" stroke="#CBCBCB" stroke-width="3" stroke-linecap="round" stroke-linejoin="round"/>
</svg>
